<svg xmlns="http://www.w3.org/2000/svg" viewBox="0 0 625.96 1095.56"><defs><style>.cls-1,.cls-2{fill:none;stroke:#231f20;stroke-miterlimit:10;}.cls-1{stroke-width:2px;}.cls-2{stroke-width:1.03px;}</style></defs><g id="Base_Outline" data-name="Base Outline"><path class="cls-1" d="M631.77,784.29c-4-10.35-8-21.29-12-31.64-3.06-.47-5.88-1.06-8.94-1.53-20.94-51.06-42.12-101.41-63.06-152.47V580.29H449q-1.77-28.57-3.53-57.17-7.07-42-14.12-84c-6.35-15.53-15.4-33.34-21.75-48.87-.95-13.16-1.43-23-2.85-37.44,2.37-53.78,2.85-105.43,2.72-159.34-3.19-39.2-5.53-55.14-11.66-70-14.87-36-49.32-79.58-62.35-95.28-3-3.61-8.7-9.47-8.7-9.47a7.78,7.78,0,0,0-5.18-1.87h-.65a7.78,7.78,0,0,0-5.17,1.87S310,24.58,307,28.19c-13,15.7-47.47,59.26-62.34,95.28-6.13,14.86-8.47,30.8-11.66,70-.13,53.91.34,105.56,2.71,159.34-1.42,14.45-1.9,24.28-2.84,37.44-6.35,15.53-15.4,33.34-21.76,48.87q-7.05,42-14.11,84-1.77,28.59-3.53,57.17H94.64v18.36C73.7,649.71,52.53,700.06,31.58,751.12c-3,.47-5.88,1.06-8.94,1.53-4,10.35-8,21.29-12,31.64L9.23,876.76,17,904.29l12.7,3.53c18.83,49.89,37.29,98.81,56.11,148.7.24,14.58,1.07,30.83,1.3,45.42,9.18,3.06,18.08,5.13,27.3,7.88,15.53.59,31.06.59,46.59.59l37.41-12c-.24-3.29-1.18-6.35-1.41-9.65,11.29,0,22.7.36,34,.36.94,2.82,1.64,4.47,2.58,7.29l72.78.42c0,.06,14.85.08,14.85.08s14.84,0,14.84-.08l72.78-.42c.94-2.82,1.65-4.47,2.59-7.29,11.29,0,22.71-.36,34-.36-.24,3.3-1.18,6.36-1.41,9.65l37.4,12c15.54,0,31.07,0,46.6-.59,9.22-2.75,18.12-4.82,27.29-7.88.24-14.59,1.07-30.84,1.3-45.42,18.83-49.89,37.29-98.81,56.11-148.7l12.71-3.53q3.89-13.75,7.76-27.53Z" transform="translate(-8.23 -15.85)"/></g><g id="Thrusters"><rect class="cls-2" x="381.49" y="239.55" width="15.01" height="29.07"/><circle class="cls-2" cx="388.99" cy="247.77" r="4.36"/><circle class="cls-2" cx="388.99" cy="261.54" r="4.36"/><rect class="cls-2" x="229.15" y="239.55" width="15.01" height="29.07"/><circle class="cls-2" cx="236.65" cy="247.77" r="4.36"/><circle class="cls-2" cx="236.65" cy="261.54" r="4.36"/><path class="cls-2" d="M68.33,850.76a4.31,4.31,0,0,0,2.78,1,4.36,4.36,0,1,0,0-8.71,4.26,4.26,0,0,0-2.8,1" transform="translate(-8.23 -15.85)"/><polyline class="cls-2" points="60 809.58 55.38 809.58 55.38 838.65 60.12 838.65"/><path class="cls-2" d="M68.28,837A4.3,4.3,0,0,0,71.11,838a4.36,4.36,0,1,0,0-8.71,4.27,4.27,0,0,0-2.86,1.09" transform="translate(-8.23 -15.85)"/><path class="cls-2" d="M75.47,833.65A4.36,4.36,0,0,1,71.11,838a4.36,4.36,0,0,1,0-8.71A4.36,4.36,0,0,1,75.47,833.65Z" transform="translate(-8.23 -15.85)"/><path class="cls-2" d="M75.47,847.41a4.36,4.36,0,0,1-4.36,4.36,4.34,4.34,0,0,1-2.8-7.67,4.26,4.26,0,0,1,2.8-1A4.36,4.36,0,0,1,75.47,847.41Z" transform="translate(-8.23 -15.85)"/><path class="cls-2" d="M573.93,836.87A4.28,4.28,0,0,1,571,838a4.36,4.36,0,0,1,0-8.71,4.29,4.29,0,0,1,3,1.16" transform="translate(-8.23 -15.85)"/><path class="cls-2" d="M573.88,850.68a4.27,4.27,0,0,1-2.87,1.09,4.36,4.36,0,0,1,0-8.71,4.29,4.29,0,0,1,2.89,1.11" transform="translate(-8.23 -15.85)"/><polyline class="cls-2" points="565.75 809.58 570.29 809.58 570.29 838.65 565.63 838.65"/><path class="cls-2" d="M575.37,833.65A4.39,4.39,0,0,1,571,838a4.36,4.36,0,0,1,0-8.71,4.38,4.38,0,0,1,4.36,4.35Z" transform="translate(-8.23 -15.85)"/><path class="cls-2" d="M575.37,847.41a4.38,4.38,0,0,1-4.36,4.36,4.36,4.36,0,0,1,0-8.71,4.39,4.39,0,0,1,4.36,4.35Z" transform="translate(-8.23 -15.85)"/><rect class="cls-2" x="305.59" y="475.09" width="15.01" height="29.07"/><circle class="cls-2" cx="313.1" cy="483.32" r="4.36"/><circle class="cls-2" cx="313.1" cy="497.08" r="4.36"/><rect class="cls-2" x="555.28" y="809.58" width="15.01" height="29.07"/><circle class="cls-2" cx="562.79" cy="817.8" r="4.36"/><circle class="cls-2" cx="562.79" cy="831.57" r="4.36"/><rect class="cls-2" x="55.38" y="809.58" width="15.01" height="29.07"/><circle class="cls-2" cx="62.89" cy="817.8" r="4.36"/><circle class="cls-2" cx="62.89" cy="831.57" r="4.36"/></g></svg>