<svg id="Base_Outline" data-name="Base Outline" xmlns="http://www.w3.org/2000/svg" viewBox="0 0 625.96 1095.56"><defs><style>.cls-1{fill:none;stroke:#231f20;stroke-miterlimit:10;stroke-width:2px;}</style></defs><path class="cls-1" d="M631.77,784.29c-4-10.35-8-21.29-12-31.64-3.06-.47-5.88-1.06-8.94-1.53-20.94-51.06-42.12-101.41-63.06-152.47V580.29H449q-1.77-28.57-3.53-57.17-7.07-42-14.12-84c-6.35-15.53-15.4-33.34-21.75-48.87-.95-13.16-1.43-23-2.85-37.44,2.37-53.78,2.85-105.43,2.72-159.34-3.19-39.2-5.53-55.14-11.66-70-14.87-36-49.32-79.58-62.35-95.28-3-3.61-8.7-9.47-8.7-9.47a7.78,7.78,0,0,0-5.18-1.87h-.65a7.78,7.78,0,0,0-5.17,1.87S310,24.58,307,28.19c-13,15.7-47.47,59.26-62.34,95.28-6.13,14.86-8.47,30.8-11.66,70-.13,53.91.34,105.56,2.71,159.34-1.42,14.45-1.9,24.28-2.84,37.44-6.35,15.53-15.4,33.34-21.76,48.87q-7.05,42-14.11,84-1.77,28.59-3.53,57.17H94.64v18.36C73.7,649.71,52.53,700.06,31.58,751.12c-3,.47-5.88,1.06-8.94,1.53-4,10.35-8,21.29-12,31.64L9.23,876.76,17,904.29l12.7,3.53c18.83,49.89,37.29,98.81,56.11,148.7.24,14.58,1.07,30.83,1.3,45.42,9.18,3.06,18.08,5.13,27.3,7.88,15.53.59,31.06.59,46.59.59l37.41-12c-.24-3.29-1.18-6.35-1.41-9.65,11.29,0,22.7.36,34,.36.94,2.82,1.64,4.47,2.58,7.29l72.78.42c0,.06,14.85.08,14.85.08s14.84,0,14.84-.08l72.78-.42c.94-2.82,1.65-4.47,2.59-7.29,11.29,0,22.71-.36,34-.36-.24,3.3-1.18,6.36-1.41,9.65l37.4,12c15.54,0,31.07,0,46.6-.59,9.22-2.75,18.12-4.82,27.29-7.88.24-14.59,1.07-30.84,1.3-45.42,18.83-49.89,37.29-98.81,56.11-148.7l12.71-3.53q3.89-13.75,7.76-27.53Z" transform="translate(-8.23 -15.85)"/></svg>