<svg version="1.2" xmlns="http://www.w3.org/2000/svg" viewBox="0 0 1124 1124" width="1124" height="1124">
   <style>.a{fill:none;stroke:#fff;stroke-width:20}</style>
   <path class="a" d="m858 824.6q-3.6 13-7.3 26l-12 3.4c-17.8 47.3-35.4 93.6-53.2 140.9-0.3 13.8-1 29.1-1.2 43-8.7 2.9-17.1 4.8-25.9 7.5-14.6 0.5-29.4 0.5-44.1 0.5l-35.4-11.3c0.2-3.2 1.1-6.1 1.3-9.2-10.7 0-21.5 0.4-32.2 0.4-0.9 2.6-1.6 4.1-2.5 6.9l-68.9 0.3c0 0.1-14.1 0.1-14.1 0.1l-14.1-0.1-68.8-0.3c-1-2.8-1.6-4.3-2.5-6.9-10.7 0-21.5-0.4-32.2-0.4 0.2 3.1 1 6 1.3 9.2l-35.4 11.3c-14.8 0-29.5 0-44.1-0.5-8.8-2.7-17.2-4.6-25.9-7.5-0.2-13.9-1-29.2-1.2-43-17.8-47.3-35.4-93.6-53.2-140.9l-12-3.4-7.4-26 1.3-87.7c3.8-9.7 7.6-20.1 11.4-29.9 2.9-0.5 5.7-1 8.5-1.4 19.8-48.4 39.9-96.1 59.7-144.5v-17.4h93.6q1.7-27 3.4-54.1 6.6-39.8 13.4-79.6c5.9-14.7 14.5-31.6 20.5-46.3 1-12.5 1.4-21.8 2.8-35.4-2.3-51-2.8-100-2.6-151 3-37.1 5.2-52.2 11-66.3 14.1-34.1 46.8-75.4 59.1-90.3 2.8-3.4 8-8.6 8.2-8.9q0.6-0.5 1.2-0.8 0.5-0.3 1.1-0.5 0.7-0.3 1.3-0.4 0.7-0.1 1.4-0.1h0.5q0.8 0 1.5 0.1 0.5 0.1 1.2 0.4 0.6 0.2 1.2 0.5 0.6 0.3 1.1 0.8c0 0 5.4 5.5 8.2 8.9 12.4 14.9 45 56.2 59.1 90.3 5.8 14.1 8.1 29.2 11 66.3 0.2 51-0.3 100-2.6 151 1.4 13.6 1.8 22.9 2.8 35.4 6 14.7 14.6 31.6 20.5 46.3q6.8 39.8 13.4 79.6 1.7 27.1 3.4 54.1h93.5v17.4c19.9 48.4 40 96.1 59.8 144.5 2.9 0.4 5.6 0.9 8.4 1.4 3.8 9.8 7.6 20.2 11.4 29.9z"/>
</svg>