{"asset":{"version":"2.0","generator":"babylon.js glTF exporter for Maya 2018 v20210201.13"},"extensionsUsed":["KHR_texture_transform"],"extensionsRequired":["KHR_texture_transform"],"scene":0,"scenes":[{"nodes":[0]}],"nodes":[{"mesh":0,"name":"pCylinder1"}],"meshes":[{"primitives":[{"attributes":{"POSITION":1,"TANGENT":2,"NORMAL":3,"TEXCOORD_0":4},"indices":0,"material":0},{"attributes":{"POSITION":6,"TANGENT":7,"NORMAL":8,"TEXCOORD_0":9},"indices":5,"material":1}],"name":"pCylinder1"}],"accessors":[{"bufferView":0,"componentType":5123,"count":594,"type":"SCALAR","name":"accessorIndices"},{"bufferView":1,"componentType":5126,"count":151,"max":[0.008466511,0.009357445,0.008337886],"min":[-0.00846651,-0.01,-0.008337886],"type":"VEC3","name":"accessorPositions"},{"bufferView":2,"componentType":5126,"count":151,"type":"VEC4","name":"accessorTangents"},{"bufferView":1,"byteOffset":1812,"componentType":5126,"count":151,"type":"VEC3","name":"accessorNormals"},{"bufferView":3,"componentType":5126,"count":151,"type":"VEC2","name":"accessorUVs"},{"bufferView":0,"byteOffset":1188,"componentType":5123,"count":486,"type":"SCALAR","name":"accessorIndices"},{"bufferView":1,"byteOffset":3624,"componentType":5126,"count":111,"max":[0.007989178,0.0180534627,0.007867805],"min":[-0.00798917748,0.009357445,-0.007867805],"type":"VEC3","name":"accessorPositions"},{"bufferView":2,"byteOffset":2416,"componentType":5126,"count":111,"type":"VEC4","name":"accessorTangents"},{"bufferView":1,"byteOffset":4956,"componentType":5126,"count":111,"type":"VEC3","name":"accessorNormals"},{"bufferView":3,"byteOffset":1208,"componentType":5126,"count":111,"type":"VEC2","name":"accessorUVs"}],"bufferViews":[{"buffer":0,"byteLength":2160,"name":"bufferViewScalar"},{"buffer":0,"byteOffset":2160,"byteLength":6288,"byteStride":12,"name":"bufferViewFloatVec3"},{"buffer":0,"byteOffset":8448,"byteLength":4192,"byteStride":16,"name":"bufferViewFloatVec4"},{"buffer":0,"byteOffset":12640,"byteLength":2096,"byteStride":8,"name":"bufferViewFloatVec2"}],"buffers":[{"uri":"Projectile_01.bin","byteLength":14736}],"materials":[{"pbrMetallicRoughness":{"baseColorFactor":[0.116883114,0.116883114,0.116883114,1.0],"baseColorTexture":{"index":1,"extensions":{"KHR_texture_transform":{"scale":[3.0,-3.0],"texCoord":0}}},"metallicRoughnessTexture":{"index":2}},"normalTexture":{"index":0,"extensions":{"KHR_texture_transform":{"scale":[3.0,-3.0],"texCoord":0}}},"name":"Bullet_2_MTL"},{"pbrMetallicRoughness":{"baseColorTexture":{"index":4},"metallicRoughnessTexture":{"index":5}},"normalTexture":{"index":3},"name":"Bullet_MTL01"}],"textures":[{"sampler":0,"source":0,"name":"Metal007_1K_Normal.jpg"},{"sampler":0,"source":1,"name":"Metal007_1K_Color.jpg"},{"sampler":0,"source":2,"name":"34file6.jpg"},{"sampler":0,"source":3,"name":"Metal033_1K_Normal.jpg"},{"sampler":0,"source":4,"name":"Metal033_1K_Color.jpg"},{"sampler":0,"source":5,"name":"11file2.jpg"}],"images":[{"uri":"Metal007_1K_Normal.jpg"},{"uri":"Metal007_1K_Color.jpg"},{"uri":"34file6.jpg"},{"uri":"Metal033_1K_Normal.jpg"},{"uri":"Metal033_1K_Color.jpg"},{"uri":"11file2.jpg"}],"samplers":[{"magFilter":9729,"minFilter":9987}]}